<svg width="113" height="48" viewBox="0 0 113 48" fill="none" xmlns="http://www.w3.org/2000/svg">
<path d="M40.7183 6.85584C40.3135 6.61413 39.9901 6.27189 39.6282 5.97672C37.1461 3.95752 34.3342 2.59285 31.2547 1.76078C30.0382 1.43138 28.8026 1.21106 27.5476 1.10839C26.5303 1.02711 25.5088 0.954386 24.4873 1.01428C23.0738 1.0977 21.669 1.26026 20.2855 1.57897C20.187 1.6025 20.0649 1.6025 19.99 1.74367C20.6453 1.94046 21.2749 2.18002 21.8767 2.47948C22.1358 2.60782 22.35 2.60354 22.6134 2.50515C23.727 2.0966 24.8685 1.7672 26.0099 1.44207C26.1106 1.41213 26.2134 1.37149 26.3569 1.42282C26.1427 1.61319 25.8943 1.66025 25.6694 1.74153C24.8085 2.0581 23.9605 2.40676 23.1167 2.7661C23.031 2.80247 22.8918 2.79177 22.8918 2.92439C22.8918 3.03134 23.0139 3.04203 23.0888 3.08481C24.5173 3.88265 25.7915 4.88797 26.9929 5.99169C27.0293 6.02591 27.07 6.05586 27.0443 6.12217C26.9008 6.17136 26.8045 6.058 26.6995 6.00024C25.0655 5.09973 23.3994 4.26339 21.6625 3.57464C21.5276 3.52116 21.4248 3.5233 21.2963 3.58533C19.6987 4.36178 18.1504 5.22807 16.6598 6.19489C16.4671 6.31895 16.5313 6.38954 16.6812 6.45371C18.0219 7.03337 19.2875 7.74779 20.4761 8.59483C20.6132 8.69322 20.7053 8.65044 20.8209 8.5713C21.3734 8.19912 21.9324 7.83335 22.487 7.46331C22.577 7.40342 22.6584 7.32641 22.8019 7.32427C22.6327 7.59806 22.3628 7.73924 22.1444 7.93174C21.8296 8.20553 21.4955 8.46007 21.1657 8.71675C20.9837 8.85792 21.0179 8.94348 21.1935 9.07182C22.4999 10.0301 23.6499 11.168 24.8299 12.2696C24.8406 12.2803 24.8385 12.306 24.8471 12.3423C24.7378 12.3958 24.6672 12.3145 24.5879 12.2696C23.3051 11.521 22.0223 10.7702 20.7352 10.0258C20.0842 9.64721 20.0778 9.64721 19.5231 10.1541C17.9105 11.63 16.3793 13.1851 14.998 14.8856C14.8438 15.0759 14.8502 15.1658 15.0622 15.2877C16.2015 15.9508 17.2745 16.7123 18.3345 17.493C18.463 17.5871 18.5187 17.6791 18.5016 17.8395C18.4545 18.3122 18.3324 18.7807 18.4266 19.2619C18.4373 19.3197 18.4373 19.3881 18.3709 19.4181C18.3067 19.448 18.2596 19.401 18.2125 19.3625C16.9361 18.3229 15.5912 17.3775 14.2505 16.4235C14.0128 16.2545 13.9079 16.2823 13.7409 16.5176C12.5973 18.1283 11.5779 19.8138 10.7041 21.587C10.5799 21.8394 10.5906 21.9699 10.854 22.126C12.1432 22.8875 13.3725 23.7388 14.5611 24.6479C14.7688 24.8062 14.8673 24.7784 15.0087 24.5837C16.0516 23.1463 17.2038 21.7988 18.4052 20.4897C18.5337 20.3485 18.6215 20.3507 18.6793 20.5261C18.78 20.8426 18.9299 21.1357 19.0991 21.418C19.1847 21.5613 19.1076 21.6341 19.0305 21.7303C18.0561 22.956 17.1395 24.2244 16.2187 25.4885C16.058 25.711 16.0623 25.8307 16.2893 26.0147C17.6749 27.1441 18.9941 28.3483 20.2363 29.6317C20.4269 29.8285 20.5446 29.8028 20.7245 29.6424C21.6047 28.8617 22.4913 28.0874 23.3737 27.3088C23.605 27.1056 23.8405 26.9045 24.0611 26.6863C24.2046 26.5452 24.3031 26.5666 24.4359 26.6992C24.6308 26.8981 24.8406 27.0842 25.0548 27.2639C25.1961 27.3836 25.224 27.4735 25.0762 27.6232C24.0054 28.7098 22.8939 29.7536 21.7632 30.7782C21.6518 30.8787 21.5405 30.8873 21.4056 30.8616C20.1998 30.6263 19.0734 30.1579 18.024 29.5462C17.5357 29.2638 17.1695 28.774 16.7433 28.3825C16.3022 27.9783 15.8524 27.5826 15.4156 27.174C15.24 27.0093 15.1479 27.0564 15.0258 27.2382C14.2591 28.3932 13.5096 29.5568 12.7986 30.744C12.533 31.1868 12.276 31.6381 12.0019 32.0766C11.9055 32.2327 11.8948 32.3247 12.0533 32.4509C12.9378 33.1503 13.7923 33.8861 14.5846 34.6904C14.7303 34.838 14.8202 34.8359 14.9744 34.6968C15.6854 34.0551 16.4071 33.4263 17.1267 32.7953C17.1824 32.7461 17.2252 32.6477 17.3216 32.6926C17.4137 32.7375 17.3708 32.8338 17.373 32.9086C17.3794 33.0284 17.3815 33.1482 17.373 33.268C17.3516 33.5717 17.3665 33.8177 17.7777 33.8434C17.9833 33.8562 17.9319 33.9974 17.7949 34.1022C17.1695 34.5813 16.5506 35.069 15.9188 35.5374C15.7068 35.6957 15.6597 35.7877 15.8632 36.0144C16.7112 36.9556 17.51 37.9374 18.1975 39.0047C18.3517 39.2422 18.508 39.1224 18.6579 39.0625C19.8165 38.6047 20.9537 38.0978 22.063 37.5331C22.6841 37.2165 23.2966 36.8829 23.9176 36.5684C24.0911 36.4807 24.1061 36.4059 23.984 36.2561C23.6521 35.8455 23.3308 35.4262 23.0053 35.0091C22.9561 34.9471 22.879 34.8872 22.9154 34.8016C22.9539 34.7097 23.0546 34.7417 23.1295 34.7417C23.5493 34.7332 23.969 34.7332 24.3888 34.7203C24.5408 34.7161 24.65 34.7482 24.74 34.8872C24.8792 35.1054 25.0505 35.3022 25.1897 35.5203C25.3096 35.7064 25.4296 35.7128 25.6095 35.6059C26.5196 35.069 27.417 34.5107 28.3036 33.9375C29.4172 33.2166 30.5244 32.4894 31.5588 31.6552C31.5887 31.6295 31.6273 31.6145 31.6958 31.6595C31.4667 31.9931 31.1797 32.2734 30.9056 32.5643C29.4964 34.0509 27.9823 35.4198 26.3162 36.6155C26.1192 36.7567 26.102 36.8743 26.2348 37.0754C26.8152 37.9588 27.342 38.8721 27.811 39.8197C27.9052 40.0101 27.9973 40.0571 28.2051 39.9737C29.5457 39.4325 30.8949 38.9128 32.1627 38.2069C32.2098 38.1791 32.2698 38.1727 32.3918 38.1363C32.1327 38.4999 31.7815 38.6411 31.4967 38.855C30.5736 39.5395 29.5864 40.1234 28.5734 40.6646C28.3507 40.7822 28.3228 40.8849 28.4214 41.1073C28.6719 41.672 28.9054 42.2431 29.1238 42.8207C29.2116 43.0517 29.308 43.0859 29.535 42.9939C30.8478 42.4528 32.1263 41.8496 33.2913 41.0303C33.3298 41.0047 33.3684 40.9811 33.4219 40.9726C33.2977 41.2271 33.0771 41.394 32.8694 41.5651C31.9164 42.3587 30.9077 43.0731 29.7941 43.6271C29.5393 43.7554 29.4793 43.9073 29.5692 44.1746C29.7577 44.7308 29.9076 45.3019 29.9933 45.8837C30.034 46.1682 30.1325 46.2238 30.4259 46.1575C33.2549 45.5286 35.8633 44.3907 38.2619 42.7758C40.1037 41.5373 41.7141 40.0421 43.1168 38.3224C43.1897 38.2326 43.2475 38.117 43.3953 38.0935C43.4338 38.2197 43.3481 38.2989 43.2882 38.378C42.1189 39.901 40.8082 41.2934 39.3284 42.5191C37.8079 43.7768 36.1589 44.8356 34.3749 45.6805C32.6403 46.5019 30.8371 47.1157 28.9525 47.5029C27.145 47.8751 25.3246 48.0312 23.485 47.9949C21.8767 47.9628 20.2877 47.766 18.7157 47.4109C16.5934 46.9318 14.5761 46.1832 12.6636 45.15C9.87317 43.6442 7.47032 41.6678 5.4551 39.2186C4.03309 37.4903 2.87878 35.6016 1.98575 33.5546C1.33042 32.0552 0.850711 30.5023 0.512342 28.9002C0.178256 27.3152 0.0112135 25.7152 0.000505593 24.1003C-0.00806071 22.8768 0.0925931 21.6554 0.274627 20.4405C0.505917 18.8897 0.884976 17.3796 1.4118 15.9059C2.32626 13.3519 3.6369 11.0204 5.35016 8.91354C7.3097 6.5029 9.64188 4.53718 12.3574 3.0185C13.7708 2.22708 15.2485 1.58539 16.7905 1.0977C18.3495 0.603593 19.9471 0.272051 21.5812 0.115906C22.9047 -0.0102942 24.2303 -0.0316841 25.5559 0.0431803C27.2949 0.143712 28.9996 0.434614 30.6743 0.913746C32.833 1.53191 34.8675 2.43242 36.7649 3.62811C38.1077 4.47515 39.3905 5.40775 40.5106 6.54355C40.5984 6.63124 40.7269 6.69969 40.7247 6.85156L40.7183 6.85584ZM19.5188 9.39267C19.4846 9.25577 19.3496 9.23438 19.249 9.18091C18.0304 8.52638 16.7969 7.89966 15.5526 7.29433C15.3492 7.19593 15.2207 7.2216 15.0472 7.35422C13.1498 8.79803 11.4408 10.4301 9.97168 12.3145C9.82605 12.5006 9.84961 12.5733 10.0466 12.6568C11.2652 13.1808 12.4345 13.799 13.5931 14.4407C13.7516 14.5284 13.8244 14.5048 13.9357 14.3744C14.5461 13.677 15.1993 13.0161 15.8824 12.3894C16.9939 11.3755 18.1525 10.4151 19.386 9.54881C19.4439 9.50817 19.5081 9.47395 19.5188 9.39267ZM8.03784 29.574C8.01642 29.7322 8.14064 29.7793 8.24129 29.8392C9.05937 30.3354 9.86889 30.8467 10.6399 31.4156C10.8026 31.5354 10.8583 31.4969 10.9397 31.3301C11.7942 29.5611 12.7707 27.8606 13.8758 26.2372C14.015 26.0318 13.9721 25.9313 13.8072 25.7987C12.7729 24.9687 11.7299 24.1516 10.6463 23.3859C10.0552 22.9688 10.0509 22.9752 9.77894 23.6533C9.20286 25.0864 8.73813 26.5559 8.37407 28.0574C8.24985 28.5601 8.1492 29.0692 8.03784 29.574ZM9.33777 13.3177C9.19215 13.3434 9.1536 13.4589 9.09578 13.5466C7.87508 15.3818 6.92422 17.3433 6.2689 19.4502C6.17681 19.7432 6.2432 19.8159 6.4959 19.9143C7.33112 20.2373 8.13849 20.6266 8.92873 21.048C9.30565 21.249 9.30137 21.2555 9.49625 20.864C10.3936 19.0566 11.4751 17.3647 12.745 15.7925C12.8928 15.6085 12.8971 15.4995 12.6893 15.3668C11.6314 14.6909 10.5649 14.0278 9.4834 13.3904C9.42986 13.3605 9.37632 13.337 9.33777 13.3177ZM5.10602 27.0371C5.08675 27.2767 5.08675 27.6638 5.10816 28.0531C5.11459 28.1858 5.151 28.2692 5.28377 28.3291C5.77419 28.5515 6.25819 28.7847 6.74219 29.02C6.88995 29.0927 6.95634 29.0799 6.97562 28.9002C7.00774 28.6136 7.05057 28.3291 7.10625 28.0467C7.47675 26.1174 8.00786 24.2372 8.78953 22.4298C8.86235 22.2629 8.83236 22.1602 8.67174 22.0597C7.85795 21.5528 7.02916 21.0801 6.17895 20.6373C6.0269 20.5582 5.95409 20.571 5.90911 20.7485C5.78062 21.2597 5.66926 21.7731 5.57074 22.2907C5.27735 23.8094 5.11673 25.3409 5.10602 27.0371ZM14.1092 6.72322C14.1156 6.63124 14.0385 6.62483 13.9743 6.59916C13.2547 6.30612 12.5309 6.02377 11.7942 5.77779C11.6121 5.7179 11.4879 5.73929 11.3359 5.86121C9.47269 7.32427 7.86865 9.03118 6.51946 10.9777C6.39525 11.1552 6.42523 11.2279 6.61797 11.2964C7.18977 11.4974 7.76586 11.6921 8.32481 11.9274C8.56252 12.0279 8.67603 11.9808 8.81737 11.7862C9.29066 11.1317 9.83034 10.5306 10.3893 9.9488C11.4751 8.81728 12.6658 7.80554 13.9379 6.89006C14.0043 6.843 14.0878 6.81734 14.1092 6.72322ZM20.157 42.194C20.6175 42.1127 21.08 42.0421 21.5383 41.9458C22.7376 41.6956 23.9283 41.4068 25.0998 41.0475C25.5945 40.8956 26.0892 40.7437 26.5796 40.579C26.691 40.5405 26.8923 40.5234 26.7616 40.3031C26.237 39.4218 25.6716 38.5662 25.0848 37.7256C25.0013 37.6037 24.9113 37.5844 24.785 37.6721C24.5622 37.8219 24.3309 37.963 24.1018 38.1021C22.592 39.0197 21.0201 39.809 19.3496 40.3908C19.1633 40.4571 19.0991 40.5362 19.2147 40.7416C19.4439 41.1501 19.6495 41.5694 19.8422 41.995C19.9129 42.1533 19.9921 42.2218 20.157 42.194ZM8.11493 12.7124C8.11493 12.5776 8.01214 12.5562 7.93933 12.5156C7.45747 12.2546 6.97776 11.9937 6.49376 11.7391C6.13612 11.5509 6.13184 11.5552 5.9241 11.8931C4.63273 13.9958 3.69687 16.2438 3.12721 18.6438C3.06938 18.8855 3.14862 18.9454 3.35421 18.9732C3.84892 19.0395 4.33077 19.1635 4.80406 19.3197C4.97324 19.3753 5.00965 19.2919 5.05034 19.1635C5.20453 18.6801 5.35016 18.1946 5.52577 17.7197C6.15539 16.0021 6.9799 14.3851 8.01642 12.8749C8.05283 12.8193 8.08709 12.7573 8.11493 12.7124ZM12.4837 40.7972C12.4945 40.7972 12.503 40.7951 12.5137 40.7951C14.0728 40.5534 15.5955 40.1683 17.0924 39.6678C17.2231 39.625 17.238 39.5502 17.1545 39.4432C16.39 38.4593 15.5591 37.5352 14.696 36.6369C14.5996 36.5363 14.5161 36.5535 14.409 36.6305C13.3597 37.3919 12.291 38.1235 11.2074 38.8336C11.0682 38.9256 11.0061 38.9962 11.1453 39.1545C11.5607 39.625 11.9462 40.1191 12.2696 40.6582C12.3188 40.7394 12.381 40.7993 12.4837 40.7972ZM21.9174 44.5661C22.7141 44.5383 23.5107 44.4784 24.2988 44.3629C25.6116 44.1704 26.9073 43.888 28.1751 43.4923C28.3614 43.4346 28.3635 43.3683 28.295 43.2185C28.0509 42.6838 27.8024 42.1512 27.5133 41.64C27.3142 41.2849 27.3184 41.2892 26.9608 41.456C25.5088 42.1298 24.0054 42.6517 22.4506 43.0303C21.8703 43.1715 21.2899 43.3148 20.6946 43.3896C20.4761 43.4175 20.4033 43.5073 20.5018 43.7319C20.5832 43.9222 20.6282 44.1297 20.671 44.3351C20.7138 44.534 20.8123 44.6281 21.0222 44.6131C21.3199 44.5896 21.6176 44.5811 21.9174 44.5661ZM2.519 23.88C2.52971 25.0051 2.61323 26.1259 2.7717 27.2403C2.79955 27.435 2.88735 27.5141 3.06296 27.5569C3.32423 27.6211 3.59193 27.6745 3.83607 27.7815C4.10376 27.897 4.11661 27.7815 4.11233 27.5697C4.10162 27.0521 4.11233 26.5323 4.0952 26.0147C4.06522 25.0564 4.14874 24.1024 4.25367 23.1549C4.36289 22.1667 4.52137 21.1827 4.77836 20.2202C4.82119 20.0598 4.76337 19.9785 4.6156 19.9272C4.21084 19.7881 3.81037 19.6363 3.40133 19.5036C2.97301 19.3646 2.96659 19.371 2.88949 19.8116C2.64749 21.1571 2.52971 22.5132 2.519 23.88ZM17.872 2.29981C17.7049 2.3597 17.5464 2.41745 17.388 2.4752C15.6875 3.10192 14.0942 3.93827 12.5908 4.94786C12.5287 4.99064 12.4302 5.02059 12.4495 5.11684C12.4666 5.20668 12.563 5.17888 12.6251 5.18957C13.4967 5.35427 14.3576 5.56175 15.1928 5.86977C15.3021 5.91041 15.3984 5.91041 15.5055 5.8441C17.0731 4.873 18.7115 4.03452 20.4226 3.34149C20.4847 3.31582 20.5725 3.29871 20.5661 3.21315C20.5596 3.12331 20.4611 3.13401 20.4012 3.11262C19.8743 2.93294 19.3454 2.75327 18.8142 2.58215C18.5037 2.48376 18.1868 2.39392 17.872 2.29981ZM25.3225 46.7179C26.6503 46.7265 27.8795 46.6281 29.1024 46.4291C29.4279 46.3757 29.46 46.3265 29.3551 46.0163C29.188 45.5158 29.0167 45.0174 28.8411 44.519C28.7148 44.1597 28.7083 44.1575 28.3635 44.3051C26.1063 45.2677 23.7377 45.6805 21.2985 45.7596C21.1743 45.7639 20.9944 45.6933 21.0072 45.9372C21.0179 46.1297 21.0094 46.3094 21.2771 46.3564C22.6434 46.5917 24.0204 46.7307 25.3225 46.7179ZM11.2952 33.4947C11.1881 33.4926 11.1538 33.5525 11.1196 33.6166C10.4921 34.7845 9.87531 35.9567 9.3185 37.1566C9.26068 37.2828 9.24997 37.377 9.3699 37.4689C9.75967 37.7641 10.1259 38.0871 10.4621 38.4422C10.5735 38.5598 10.6677 38.5598 10.7919 38.4486C11.7278 37.6123 12.6658 36.778 13.6081 35.9481C13.7558 35.8176 13.7901 35.7171 13.6252 35.5652C12.8971 34.8979 12.1796 34.222 11.4194 33.591C11.3744 33.5525 11.3252 33.5182 11.2952 33.4947ZM7.5003 34.3631C7.54313 34.6327 7.49602 34.9813 7.44891 35.3235C7.35896 35.9567 7.56669 36.3609 8.16633 36.6433C8.70173 36.8957 8.68674 36.9534 8.87519 36.3802C9.2671 35.1888 9.71683 34.0188 10.2222 32.8701C10.2758 32.7482 10.3015 32.652 10.1794 32.5557C9.47484 31.9996 8.75955 31.4563 8.02713 30.9386C7.89435 30.8445 7.82582 30.8509 7.80012 31.0413C7.65235 32.1193 7.54528 33.1974 7.5003 34.3631ZM6.79572 30.4103C6.86211 30.19 6.73576 30.0317 6.49162 29.8969C6.11685 29.6895 5.76349 29.4478 5.39728 29.2253C5.33303 29.1868 5.27092 29.1012 5.18526 29.1462C5.08675 29.1996 5.12744 29.3087 5.13386 29.39C5.28163 31.2851 5.52363 33.1653 5.91554 35.0284C6.00977 35.4775 6.19608 35.7043 6.61155 35.8283C6.82999 35.8947 6.8407 35.8561 6.81928 35.6529C6.75932 35.0711 6.69721 34.4851 6.68436 33.9011C6.65438 32.7568 6.6758 31.6103 6.79572 30.4103ZM15.3963 42.5298C15.876 42.6153 16.3536 42.564 16.8311 42.5426C17.5079 42.5105 18.1846 42.4656 18.8571 42.3672C19.0434 42.3394 19.1119 42.2923 18.9856 42.1041C18.7414 41.7405 18.5059 41.3683 18.2831 40.9918C18.1889 40.8336 18.0904 40.7972 17.9169 40.8485C16.4285 41.2913 14.9016 41.5031 13.3575 41.625C13.1948 41.6378 12.9699 41.5116 12.8864 41.672C12.8071 41.8239 13.0149 41.9843 13.0513 42.1554C13.1134 42.4442 13.2954 42.534 13.5717 42.5298C14.1799 42.5234 14.7881 42.5298 15.3963 42.5298ZM5.18312 34.5385C5.24737 34.4166 5.22595 34.3482 5.20882 34.2819C4.70555 32.4659 4.38217 30.6178 4.21513 28.744C4.20228 28.6007 4.12732 28.5259 4.0181 28.4724C3.80394 28.3697 3.58764 28.267 3.36706 28.1772C3.23428 28.1237 3.08652 27.9697 2.96016 28.0852C2.86808 28.1708 2.95374 28.3505 2.98158 28.4809C3.29853 29.9825 3.7504 31.4434 4.36075 32.853C4.60275 33.4113 4.84475 33.976 5.18312 34.5385ZM13.6445 43.4324C13.6702 43.4581 13.6959 43.4859 13.7237 43.5051C13.8137 43.5672 13.9058 43.6271 13.9978 43.687C14.681 44.1276 15.4798 44.1233 16.2401 44.2538C17.4779 44.4677 18.735 44.5254 19.9878 44.6024C20.1356 44.611 20.2405 44.5939 20.1399 44.4078C20.1078 44.3479 20.0906 44.2773 20.0606 44.2153C19.6709 43.3854 19.9043 43.5351 18.9984 43.5993C18.0733 43.6656 17.146 43.719 16.2187 43.6634C15.3663 43.6142 14.5118 43.5501 13.6445 43.4324ZM10.5735 40.979C10.7641 40.9683 10.884 40.9662 11.0039 40.9555C11.156 40.9405 11.171 40.8742 11.0703 40.7651C10.7662 40.4357 10.46 40.1084 10.1601 39.7748C10.0466 39.6486 9.93527 39.6357 9.79607 39.732C9.17716 40.1555 9.20071 39.9908 9.71255 40.4956C9.7768 40.5576 9.84319 40.6175 9.90529 40.6817C10.1087 40.8934 10.3315 41.0432 10.5735 40.979ZM8.75527 38.4978C8.74242 38.5128 8.71458 38.5384 8.69102 38.5662C8.4169 38.8849 8.42546 39.1887 8.71672 39.4967C8.78525 39.5694 8.84521 39.6507 8.92017 39.7149C9.00369 39.7855 9.07436 39.963 9.20286 39.8646C9.38703 39.7234 9.59691 39.5887 9.69756 39.3662C9.72968 39.2978 8.86449 38.4935 8.75527 38.4978ZM18.4416 45.5907C19.0991 45.9072 19.8165 46.0249 20.5125 46.211C20.5918 46.2323 20.7481 46.2901 20.7224 46.1168C20.6946 45.9308 20.6667 45.7361 20.3755 45.7233C19.733 45.6933 19.0884 45.6741 18.4416 45.5907ZM10.9033 41.5587C11.2309 41.8089 11.5029 42.0164 11.777 42.2218C11.8327 42.2624 11.8884 42.3052 11.9505 42.333C12.0019 42.3565 12.0683 42.38 12.1175 42.3651C12.1754 42.348 12.1454 42.2838 12.1282 42.2367C11.912 41.6635 11.6228 41.4881 10.9033 41.5587ZM7.55813 37.8069C7.56241 38.0657 7.80012 38.5491 8.00143 38.7224C8.05283 38.7673 8.10209 38.7823 8.15991 38.7459C8.27555 38.6711 8.32267 38.0914 8.21773 38.0122C8.07639 37.9053 7.9329 37.8026 7.78727 37.7C7.73373 37.6614 7.68876 37.5844 7.60952 37.6251C7.53243 37.6657 7.56669 37.7491 7.55813 37.8069Z" fill="white"/>
<path d="M104.265 33.5613C102.327 33.5613 100.389 33.557 98.4511 33.5677C98.1791 33.5698 98.072 33.5164 98.1084 33.219C98.2241 32.2629 98.3247 31.3025 98.4147 30.3442C98.5239 29.1871 98.6224 28.0277 98.7188 26.8684C98.8216 25.6406 98.9329 24.4128 99.0058 23.1829C99.1235 21.2087 99.3227 19.2386 99.4127 17.2601C99.4512 16.4259 99.4876 15.5895 99.5155 14.7553C99.524 14.4944 99.6632 14.4495 99.886 14.4495C102.323 14.4537 104.76 14.4516 107.199 14.4516C108.669 14.4516 110.136 14.4559 111.605 14.4473C111.851 14.4452 111.919 14.4965 111.909 14.766C111.889 15.2537 111.748 15.7307 111.782 16.2205C111.795 16.4088 111.72 16.4644 111.538 16.4473C110.823 16.3831 110.108 16.3532 109.388 16.351C107.96 16.3489 106.531 16.3318 105.103 16.3296C104.214 16.3275 103.325 16.351 102.437 16.3489C102.188 16.3489 102.087 16.4237 102.07 16.689C101.968 18.2355 101.85 19.7819 101.728 21.3284C101.693 21.7455 101.672 22.1626 101.646 22.5797C101.631 22.8001 101.728 22.8664 101.914 22.8813C101.963 22.8856 102.015 22.8877 102.064 22.8877C103.672 22.8963 105.281 22.9156 106.889 22.9091C107.925 22.9049 108.962 22.8664 109.998 22.8343C110.262 22.8257 110.375 22.8642 110.318 23.1829C110.234 23.6407 110.215 24.1112 110.187 24.5775C110.176 24.7765 110.095 24.8364 109.911 24.8321C109.332 24.8257 108.754 24.8 108.178 24.7893C106.69 24.7615 105.201 24.7743 103.713 24.7829C103.026 24.7872 102.338 24.8235 101.651 24.8235C101.394 24.8235 101.417 24.9925 101.406 25.1422C101.325 26.2438 101.246 27.3432 101.169 28.4448C101.098 29.4266 101.036 30.4063 100.955 31.3881C100.935 31.6127 100.989 31.6897 101.22 31.6897C103.158 31.6832 105.096 31.7025 107.035 31.679C108.161 31.6661 109.29 31.6683 110.412 31.5442C110.611 31.5228 110.658 31.6084 110.645 31.7795C110.611 32.295 110.508 32.8041 110.506 33.3238C110.504 33.5591 110.326 33.5655 110.14 33.5655C108.251 33.5634 106.364 33.5634 104.475 33.5634C104.405 33.5613 104.334 33.5613 104.265 33.5613Z" fill="white"/>
<path d="M43.2353 14.4519C45.1734 14.4519 47.1115 14.4519 49.0497 14.4519C49.4458 14.4519 49.4608 14.4605 49.3859 14.8327C49.2938 15.284 49.3259 15.746 49.2488 16.1995C49.2167 16.392 49.1482 16.4647 48.9383 16.4497C46.7068 16.285 44.471 16.3364 42.2352 16.3321C41.4663 16.3299 40.6975 16.3449 39.9287 16.3556C39.5453 16.362 39.5539 16.3898 39.5325 16.7684C39.4768 17.701 39.389 18.6315 39.3183 19.5619C39.2412 20.5822 39.1749 21.6047 39.0978 22.625C39.087 22.7619 39.1149 22.8346 39.2562 22.8496C39.3547 22.8603 39.4533 22.8838 39.5518 22.8859C41.869 22.9373 44.184 22.9094 46.5012 22.8795C46.8588 22.8752 47.2165 22.8389 47.5763 22.8324C47.7776 22.8303 47.8504 22.903 47.8118 23.102C47.7133 23.6003 47.694 24.1094 47.6598 24.6142C47.6448 24.811 47.5227 24.8324 47.3707 24.8281C46.8524 24.811 46.3341 24.8003 45.818 24.7918C44.0298 24.7575 42.2416 24.7661 40.4534 24.7896C40.0572 24.7939 39.6588 24.826 39.2584 24.8281C38.8857 24.8303 38.8408 24.8559 38.8429 25.2324C38.845 26.0495 38.7337 26.858 38.6887 27.673C38.6202 28.8836 38.5088 30.09 38.4124 31.2985C38.3825 31.6836 38.376 31.6836 38.7551 31.6836C40.6226 31.6836 42.4922 31.7007 44.3596 31.6771C45.5161 31.6643 46.6746 31.6707 47.8268 31.5488C48.0795 31.5231 48.1652 31.5809 48.1224 31.8547C48.0474 32.3252 48.0046 32.8022 47.9639 33.2771C47.9467 33.4867 47.8696 33.568 47.6469 33.5659C43.7321 33.5594 39.8152 33.5594 35.9004 33.5637C35.6348 33.5637 35.5427 33.5145 35.5834 33.2044C35.7055 32.2782 35.7783 31.3477 35.8683 30.4173C35.9732 29.3392 36.0888 28.2612 36.1766 27.181C36.2773 25.9639 36.3501 24.7426 36.4422 23.5233C36.5429 22.1758 36.6606 20.8282 36.7527 19.4785C36.8255 18.4475 36.8641 17.4144 36.9326 16.3813C36.969 15.8358 37.0161 15.2904 37.0054 14.7428C37.0012 14.5118 37.0975 14.4434 37.331 14.4434C39.2991 14.4562 41.2672 14.4519 43.2353 14.4519Z" fill="white"/>
<path d="M23.0919 33.849C21.8412 33.8832 20.5392 33.6415 19.2542 33.295C19.0144 33.2308 18.7702 33.1731 18.5282 33.1174C18.3697 33.0811 18.2884 32.9977 18.2884 32.8265C18.2926 32.1891 18.2669 31.5517 18.2241 30.9143C18.207 30.6576 18.344 30.756 18.4683 30.8138C19.2478 31.1774 20.0423 31.5004 20.8797 31.695C22.3488 32.0351 23.8115 32.1699 25.2549 31.5474C27.041 30.7774 27.5314 28.7154 26.2572 27.2417C25.4455 26.3027 24.4647 25.5412 23.5502 24.7091C22.5972 23.845 21.565 23.0664 20.7169 22.091C20.0916 21.3723 19.5348 20.613 19.3934 19.6312C19.1064 17.6569 19.931 15.9885 21.6828 14.9896C22.6058 14.4634 23.6123 14.2559 24.6574 14.1789C26.1929 14.0655 27.7049 14.2516 29.2147 14.5147C29.4031 14.5468 29.4802 14.6324 29.476 14.8078C29.4631 15.396 29.5166 15.9821 29.5509 16.5703C29.5616 16.735 29.5402 16.8098 29.3368 16.7393C28.2874 16.3756 27.208 16.1232 26.0965 16.0633C25.0536 16.0077 24.0449 16.1425 23.154 16.7564C21.8284 17.6697 21.5864 19.1499 22.5372 20.4525C23.2333 21.4065 24.1413 22.1402 25.0279 22.9017C26.1843 23.8963 27.3708 24.8524 28.4073 25.9839C30.4675 28.2299 29.7244 31.7784 27.0988 33.0533C25.8545 33.6565 24.546 33.8682 23.0919 33.849Z" fill="white"/>
<path d="M88.2255 14.1621C89.4398 14.13 90.6305 14.329 91.8191 14.5322C91.9626 14.5557 91.9925 14.6327 91.9947 14.7589C92.0075 15.3642 91.999 15.9717 92.1018 16.5727C92.1317 16.7439 92.0761 16.8059 91.8833 16.7417C91.168 16.4979 90.4378 16.2947 89.6904 16.1813C88.3626 15.9802 87.0519 15.9311 85.8355 16.6604C84.4156 17.5118 84.0623 19.0903 85.0367 20.4144C85.6792 21.2913 86.4908 21.9951 87.3111 22.6945C88.4547 23.672 89.6454 24.5982 90.6798 25.6976C91.3736 26.4335 91.9369 27.2612 92.0782 28.2837C92.2902 29.828 91.8726 31.1948 90.7269 32.2793C89.8167 33.1392 88.6817 33.5456 87.4546 33.7274C85.5143 34.0119 83.6168 33.8065 81.7408 33.2867C81.5202 33.2247 81.2975 33.1691 81.0748 33.122C80.9142 33.0878 80.8392 33.0087 80.8435 32.8354C80.8542 32.2194 80.8328 31.6034 80.7493 30.9916C80.7236 30.7991 80.76 30.7071 80.9891 30.8141C81.773 31.1777 82.5718 31.4986 83.4155 31.6996C84.8054 32.0312 86.1974 32.1616 87.5702 31.6483C88.5382 31.2847 89.2556 30.6472 89.4591 29.5885C89.639 28.6452 89.3498 27.8174 88.6988 27.1179C87.9021 26.2623 86.992 25.5287 86.1289 24.7437C85.0389 23.7533 83.8396 22.8763 82.9273 21.6977C82.4326 21.0603 82.0149 20.378 81.9079 19.5695C81.698 17.9674 82.1884 16.6048 83.4348 15.546C84.6427 14.5193 86.0904 14.2028 87.628 14.1664C87.825 14.1578 88.0242 14.1621 88.2255 14.1621Z" fill="white"/>
<path d="M60.5201 33.5611C58.6612 33.5611 56.8045 33.5568 54.9456 33.5654C54.6715 33.5675 54.5922 33.5055 54.6072 33.2125C54.6286 32.7847 54.7014 32.3612 54.7486 31.9376C54.9306 30.3163 55.0805 28.6928 55.2197 27.0693C55.3482 25.5742 55.4767 24.0812 55.5731 22.5839C55.663 21.2064 55.8172 19.831 55.8707 18.4514C55.9071 17.4974 56.0185 16.5477 56.0035 15.5894C55.9992 15.2835 56.0485 14.9755 56.072 14.6696C56.0828 14.5113 56.1534 14.4472 56.3205 14.4493C57.0893 14.4557 57.8581 14.46 58.6269 14.4493C58.8732 14.445 58.8797 14.5798 58.8625 14.7552C58.7961 15.4889 58.7255 16.2204 58.6634 16.9541C58.597 17.7369 58.5477 18.5198 58.4792 19.3027C58.3828 20.3807 58.265 21.4566 58.1772 22.5368C58.0723 23.8245 57.9952 25.1164 57.8967 26.4041C57.8046 27.6233 57.6847 28.8404 57.6097 30.0596C57.5819 30.5152 57.5562 30.9729 57.5069 31.4286C57.4855 31.6168 57.5583 31.6467 57.7189 31.6467C60.3445 31.6703 62.9722 31.6703 65.5978 31.6189C65.8762 31.6125 66.1524 31.574 66.4287 31.5483C66.6086 31.5312 66.6878 31.5933 66.6621 31.7858C66.5957 32.2991 66.5358 32.8125 66.4822 33.328C66.4608 33.5461 66.3345 33.5697 66.1524 33.5675C64.2764 33.559 62.3983 33.5611 60.5201 33.5611Z" fill="white"/>
<path d="M73.0141 33.5465C72.6351 33.5465 72.2539 33.5379 71.8748 33.5508C71.6757 33.5572 71.6114 33.4973 71.6328 33.2941C71.6971 32.7016 71.7335 32.1048 71.7999 31.5123C71.9305 30.3359 72.0119 29.1573 72.104 27.9766C72.2068 26.659 72.3246 25.3413 72.4231 24.0216C72.4916 23.089 72.5216 22.1543 72.6008 21.2217C72.725 19.765 72.7679 18.3062 72.9028 16.8496C72.967 16.1587 72.9456 15.4571 72.9435 14.7598C72.9435 14.5245 73.0206 14.4432 73.254 14.4454C74.0121 14.4561 74.7724 14.4539 75.5305 14.4454C75.7147 14.4432 75.7853 14.501 75.7682 14.6849C75.7168 15.2689 75.6868 15.855 75.6183 16.4389C75.5305 17.179 75.4748 17.9212 75.4149 18.6634C75.3078 20.0196 75.19 21.3757 75.0893 22.7339C75.0229 23.6259 74.9823 24.5178 74.9244 25.4098C74.8259 26.9071 74.7146 28.4022 74.6246 29.9016C74.5604 31.0139 74.5197 32.1262 74.479 33.2385C74.4704 33.4716 74.3783 33.555 74.1492 33.5486C73.7723 33.5379 73.3932 33.5465 73.0141 33.5465Z" fill="white"/>
<path d="M31.6712 19.6255C31.7419 19.8073 31.6219 19.8886 31.5598 19.9784C30.5854 21.4158 29.5082 22.7762 28.3753 24.0895C28.1269 24.3762 28.114 24.374 27.8463 24.1131C27.4501 23.7281 27.4501 23.7281 27.8592 23.3495C28.9642 22.3249 30.0757 21.3089 31.1229 20.2223C31.3028 20.0298 31.4784 19.833 31.6712 19.6255Z" fill="white"/>
<path d="M109.301 42.0856L109.274 41.7608C109.274 41.7252 109.262 41.6124 109.238 41.4226C109.695 41.6213 110.116 41.7207 110.502 41.7207C110.704 41.7207 110.874 41.694 111.014 41.6406C111.153 41.5872 111.257 41.5086 111.325 41.4048C111.396 41.298 111.432 41.1883 111.432 41.0755C111.432 41.0133 111.421 40.951 111.401 40.8887C111.383 40.8264 111.355 40.7671 111.316 40.7107C111.278 40.6514 111.22 40.5876 111.143 40.5194C111.068 40.4482 110.911 40.3162 110.671 40.1234C110.434 39.9306 110.253 39.7808 110.128 39.674C110.007 39.5642 109.901 39.453 109.812 39.3403C109.726 39.2246 109.662 39.1089 109.621 38.9932C109.579 38.8776 109.559 38.7604 109.559 38.6417C109.559 38.4519 109.618 38.268 109.737 38.09C109.858 37.912 110.032 37.78 110.257 37.694C110.486 37.605 110.753 37.5605 111.058 37.5605C111.399 37.5605 111.774 37.6006 112.184 37.6807C112.196 37.912 112.21 38.1241 112.228 38.3169C111.896 38.1805 111.568 38.1123 111.245 38.1123C111.07 38.1123 110.907 38.136 110.756 38.1835C110.607 38.228 110.497 38.2962 110.426 38.3881C110.358 38.4801 110.324 38.5809 110.324 38.6907C110.324 38.7619 110.336 38.8301 110.36 38.8954C110.383 38.9606 110.425 39.0318 110.484 39.1089C110.546 39.1831 110.621 39.2572 110.707 39.3314C110.793 39.4056 110.963 39.545 111.218 39.7496C111.476 39.9543 111.653 40.1056 111.748 40.2035C111.843 40.3014 111.924 40.4022 111.992 40.506C112.061 40.6098 112.11 40.7137 112.139 40.8175C112.172 40.9183 112.188 41.0222 112.188 41.1289C112.188 41.3366 112.126 41.5294 112.001 41.7074C111.88 41.8853 111.697 42.0233 111.454 42.1212C111.211 42.219 110.938 42.268 110.635 42.268C110.508 42.268 110.358 42.2591 110.186 42.2413C110.014 42.2265 109.867 42.2072 109.746 42.1834C109.627 42.1627 109.479 42.1301 109.301 42.0856Z" fill="white"/>
<path d="M101.68 42.1701L101.729 41.5249C101.738 41.3885 101.749 41.1734 101.764 40.8798L101.871 38.1701C101.874 37.9476 101.875 37.7786 101.875 37.6629C102.015 37.6658 102.142 37.6673 102.258 37.6673C102.383 37.6673 102.506 37.6658 102.627 37.6629L102.587 38.4905C102.688 38.3244 102.779 38.1924 102.859 38.0945C102.942 37.9966 103.05 37.9061 103.184 37.8231C103.317 37.74 103.468 37.6762 103.637 37.6317C103.809 37.5843 103.987 37.5605 104.171 37.5605C104.299 37.5605 104.425 37.5754 104.55 37.605C104.674 37.6347 104.788 37.6762 104.892 37.7296C104.999 37.783 105.089 37.8438 105.164 37.912C105.241 37.9803 105.301 38.0544 105.346 38.1345C105.393 38.2146 105.441 38.3303 105.488 38.4816C105.669 38.1404 105.895 37.9017 106.165 37.7652C106.438 37.6288 106.742 37.5605 107.077 37.5605C107.29 37.5605 107.496 37.5947 107.695 37.6629C107.897 37.7311 108.057 37.829 108.176 37.9565C108.294 38.0841 108.373 38.2176 108.412 38.357C108.453 38.4934 108.474 38.6314 108.474 38.7708C108.474 38.9132 108.463 39.1267 108.443 39.4115C108.422 39.6962 108.398 40.1308 108.372 40.7152C108.345 41.2965 108.33 41.7815 108.327 42.1701C108.17 42.1642 108.047 42.1612 107.958 42.1612C107.863 42.1612 107.722 42.1642 107.535 42.1701C107.568 41.7697 107.596 41.3336 107.62 40.862L107.677 39.7585C107.692 39.4916 107.7 39.2617 107.7 39.0689C107.7 38.8968 107.682 38.7634 107.646 38.6684C107.611 38.5706 107.553 38.483 107.473 38.4059C107.396 38.3288 107.299 38.271 107.184 38.2324C107.068 38.1909 106.936 38.1701 106.788 38.1701C106.669 38.1701 106.559 38.1835 106.458 38.2102C106.363 38.2369 106.271 38.2769 106.182 38.3303C106.085 38.3866 105.997 38.4564 105.92 38.5394C105.843 38.6195 105.778 38.71 105.724 38.8108C105.668 38.9146 105.622 39.0377 105.586 39.1801C105.542 39.3581 105.511 39.5761 105.493 39.8342C105.472 40.11 105.456 40.4734 105.444 40.9243L105.408 42.1701C105.236 42.1642 105.107 42.1612 105.021 42.1612C104.941 42.1612 104.806 42.1642 104.616 42.1701C104.646 41.8023 104.67 41.4241 104.687 41.0355L104.741 39.9588C104.756 39.6265 104.763 39.3433 104.763 39.1089C104.763 38.9576 104.748 38.8301 104.719 38.7263C104.689 38.6195 104.633 38.5231 104.55 38.4371C104.469 38.3481 104.372 38.2813 104.256 38.2369C104.14 38.1894 104.013 38.1657 103.873 38.1657C103.725 38.1657 103.584 38.1924 103.451 38.2457C103.317 38.2962 103.194 38.3718 103.081 38.4727C102.969 38.5735 102.874 38.6981 102.796 38.8464C102.719 38.9918 102.659 39.1846 102.614 39.4248C102.573 39.6621 102.538 40.0774 102.512 40.6707C102.488 41.2639 102.476 41.7637 102.476 42.1701C102.286 42.1642 102.156 42.1612 102.085 42.1612C102.007 42.1612 101.872 42.1642 101.68 42.1701Z" fill="white"/>
<path d="M98.4883 42.1701C98.5951 40.4586 98.6485 39.0926 98.6485 38.0722L98.644 37.6629C98.7953 37.6658 98.9199 37.6673 99.0178 37.6673C99.1305 37.6673 99.2565 37.6658 99.396 37.6629L99.3604 38.4015C99.4701 38.2176 99.5665 38.0796 99.6496 37.9877C99.7356 37.8928 99.832 37.8156 99.9388 37.7563C100.046 37.694 100.166 37.6466 100.299 37.6139C100.436 37.5783 100.577 37.5605 100.722 37.5605C100.846 37.5605 100.97 37.5754 101.091 37.605C101.094 37.8008 101.105 38.0203 101.122 38.2635C100.938 38.2131 100.774 38.1879 100.628 38.1879C100.453 38.1879 100.296 38.2176 100.157 38.2769C100.017 38.3333 99.8913 38.4208 99.7786 38.5394C99.6688 38.6551 99.5784 38.7945 99.5072 38.9576C99.4479 39.0882 99.4019 39.2572 99.3693 39.4649C99.3396 39.6725 99.3159 40.0507 99.2981 40.5995C99.2862 40.9999 99.2803 41.4241 99.2803 41.872V42.1701C99.1201 42.1642 98.9911 42.1612 98.8932 42.1612C98.8042 42.1612 98.6692 42.1642 98.4883 42.1701Z" fill="white"/>
<path d="M95.3799 37.5605C95.6913 37.5605 95.9879 37.605 96.2697 37.694C96.5515 37.783 96.7948 37.9239 96.9994 38.1167C97.2071 38.3095 97.3643 38.5528 97.4711 38.8464C97.5779 39.1401 97.6312 39.45 97.6312 39.7763C97.6312 40.1293 97.5734 40.4675 97.4577 40.7908C97.345 41.1141 97.1848 41.3885 96.9772 41.6139C96.7725 41.8394 96.5204 42.0055 96.2208 42.1123C95.9242 42.2161 95.6053 42.268 95.2642 42.268C94.9468 42.268 94.6472 42.2205 94.3654 42.1256C94.0836 42.0307 93.8389 41.8824 93.6313 41.6807C93.4266 41.479 93.2709 41.2328 93.1641 40.9421C93.0573 40.6484 93.0039 40.3414 93.0039 40.021C93.0039 39.5376 93.1018 39.103 93.2976 38.7174C93.4933 38.3288 93.7811 38.0396 94.1607 37.8498C94.5404 37.6569 94.9468 37.5605 95.3799 37.5605ZM95.3621 38.1256C95.0595 38.1256 94.7807 38.2013 94.5256 38.3525C94.2735 38.5038 94.0866 38.7322 93.965 39.0377C93.8434 39.3403 93.7825 39.671 93.7825 40.0299C93.7825 40.3444 93.833 40.6276 93.9338 40.8798C94.0347 41.1289 94.2008 41.3306 94.4322 41.4849C94.6635 41.6391 94.9423 41.7163 95.2686 41.7163C95.4911 41.7163 95.7017 41.6792 95.9004 41.605C96.0992 41.5279 96.2727 41.4018 96.421 41.2268C96.5693 41.0518 96.6791 40.8382 96.7503 40.5861C96.8215 40.331 96.8571 40.0641 96.8571 39.7852C96.8571 39.5242 96.8215 39.2795 96.7503 39.0511C96.6791 38.8227 96.5693 38.6403 96.421 38.5038C96.2757 38.3644 96.1096 38.2665 95.9227 38.2102C95.7388 38.1538 95.5519 38.1256 95.3621 38.1256Z" fill="white"/>
<path d="M90.5707 42.1703L90.6196 41.3516L90.7398 38.2192H90.1836C90.1984 38.0739 90.2103 37.8914 90.2192 37.6719H90.7932C90.7991 37.3961 90.805 37.1855 90.811 37.0401C90.8199 36.8918 90.8391 36.7598 90.8688 36.6441C90.9014 36.5255 90.9474 36.4261 91.0067 36.346C91.069 36.263 91.1536 36.1873 91.2603 36.1191C91.3701 36.0509 91.4962 36.0019 91.6385 35.9723C91.7839 35.9397 91.95 35.9233 92.1369 35.9233C92.3831 35.9233 92.6693 35.9604 92.9956 36.0346C93.0015 36.2125 93.0164 36.4009 93.0401 36.5996C92.7583 36.5018 92.5017 36.4528 92.2703 36.4528C92.1576 36.4528 92.0538 36.4676 91.9589 36.4973C91.864 36.527 91.7868 36.567 91.7275 36.6174C91.6712 36.6649 91.6237 36.7287 91.5851 36.8088C91.5495 36.8889 91.5243 36.9838 91.5095 37.0935C91.4976 37.2033 91.4917 37.3323 91.4917 37.4806L91.4873 37.6719H92.7242C92.7094 37.7995 92.696 37.9819 92.6841 38.2192H91.4917L91.4116 40.4928L91.3716 42.1703C91.1877 42.1643 91.0527 42.1614 90.9667 42.1614C90.8836 42.1614 90.7516 42.1643 90.5707 42.1703Z" fill="white"/>
<path d="M89.7935 41.5829C89.7609 41.7282 89.7253 41.921 89.6867 42.1613C89.485 42.2088 89.3248 42.2384 89.2062 42.2503C89.0875 42.2622 88.9748 42.2681 88.868 42.2681C88.604 42.2681 88.3905 42.2355 88.2273 42.1702C88.0672 42.102 87.9441 41.9952 87.858 41.8499C87.772 41.7015 87.729 41.5013 87.729 41.2492C87.729 41.2166 87.7305 41.1587 87.7335 41.0757C87.7364 40.9926 87.7513 40.7034 87.778 40.208L87.8847 38.2147H87.293C87.3048 38.0901 87.3152 37.9122 87.3241 37.6808H87.9292C87.9441 37.5147 87.9589 37.2314 87.9737 36.831C88.2526 36.7776 88.4884 36.7271 88.6812 36.6797C88.6604 37.1187 88.6485 37.4524 88.6456 37.6808H89.8825C89.8677 37.8677 89.8588 38.0456 89.8558 38.2147H88.6233L88.5032 40.7197L88.4987 40.911C88.4987 41.1276 88.5225 41.2907 88.5699 41.4005C88.6204 41.5073 88.6945 41.5844 88.7924 41.6318C88.8903 41.6793 88.9926 41.703 89.0994 41.703C89.1736 41.703 89.2537 41.6971 89.3397 41.6852C89.4257 41.6734 89.577 41.6393 89.7935 41.5829Z" fill="white"/>
<path d="M82.9634 38.3792C82.9901 38.2487 83.0183 38.0559 83.0479 37.8008C83.4039 37.7089 83.7124 37.6466 83.9734 37.6139C84.2374 37.5783 84.494 37.5605 84.7432 37.5605C85.0101 37.5605 85.2593 37.5858 85.4906 37.6362C85.725 37.6836 85.9193 37.7623 86.0735 37.872C86.2278 37.9818 86.3301 38.1078 86.3805 38.2502C86.4309 38.3926 86.4562 38.5453 86.4562 38.7085C86.4562 38.9132 86.4398 39.2572 86.4072 39.7407C86.3776 40.2213 86.3538 40.6662 86.336 41.0755C86.3212 41.4849 86.3138 41.8497 86.3138 42.1701C86.1536 42.1642 86.0231 42.1612 85.9222 42.1612C85.8273 42.1612 85.6924 42.1642 85.5173 42.1701L85.6108 40.9554L85.6775 39.5183C85.5737 39.5984 85.4951 39.6547 85.4417 39.6873C85.3913 39.72 85.3334 39.7511 85.2682 39.7808C85.2029 39.8075 85.1302 39.8342 85.0502 39.8609C84.973 39.8846 84.8203 39.9276 84.5919 39.9899C84.3664 40.0522 84.2063 40.0997 84.1113 40.1323C83.9067 40.1975 83.745 40.2628 83.6264 40.3281C83.5077 40.3933 83.4083 40.4645 83.3283 40.5416C83.2482 40.6187 83.1918 40.6959 83.1592 40.773C83.1206 40.8679 83.1013 40.9673 83.1013 41.0711C83.1013 41.2313 83.1488 41.3707 83.2437 41.4893C83.3386 41.608 83.4573 41.691 83.5997 41.7385C83.745 41.783 83.9185 41.8052 84.1202 41.8052C84.2448 41.8052 84.3753 41.7963 84.5118 41.7785C84.6482 41.7608 84.8307 41.7148 85.0591 41.6406C85.0175 41.7563 84.9701 41.9343 84.9167 42.1745C84.7001 42.2161 84.5236 42.2413 84.3872 42.2502C84.2508 42.262 84.1217 42.268 84.0001 42.268C83.5937 42.268 83.2763 42.2205 83.0479 42.1256C82.8195 42.0307 82.649 41.8868 82.5363 41.694C82.4235 41.4982 82.3672 41.2862 82.3672 41.0578C82.3672 40.9243 82.3865 40.8012 82.425 40.6885C82.4666 40.5757 82.5214 40.4734 82.5897 40.3814C82.6579 40.2895 82.7543 40.1975 82.8789 40.1056C83.0064 40.0136 83.1384 39.938 83.2749 39.8787C83.4143 39.8193 83.5759 39.7615 83.7598 39.7051C83.9437 39.6458 84.2389 39.5672 84.6453 39.4693C84.7758 39.4397 84.887 39.41 84.979 39.3803C85.0709 39.3477 85.1525 39.3166 85.2237 39.2869C85.2949 39.2572 85.3572 39.2231 85.4106 39.1846C85.464 39.143 85.5129 39.0941 85.5574 39.0377C85.6019 38.9784 85.6345 38.9191 85.6553 38.8598C85.676 38.8004 85.6864 38.7411 85.6864 38.6818C85.6864 38.5364 85.639 38.4119 85.544 38.308C85.4491 38.2042 85.3245 38.1315 85.1703 38.09C85.019 38.0485 84.8396 38.0277 84.6319 38.0277C84.4391 38.0277 84.2404 38.044 84.0357 38.0767C83.834 38.1063 83.659 38.1434 83.5107 38.1879C83.3653 38.2294 83.1829 38.2932 82.9634 38.3792Z" fill="white"/>
<path d="M80.6367 42.1706C80.696 41.257 80.7539 40.1743 80.8102 38.9225C80.8488 38.0119 80.877 37.0701 80.8948 36.0972L81.3086 36.1016C81.3946 36.1016 81.5266 36.1001 81.7046 36.0972L81.5666 38.7089L81.4687 41.3519L81.451 42.1706C81.2759 42.1646 81.1454 42.1617 81.0594 42.1617C81.0238 42.1617 80.8829 42.1646 80.6367 42.1706Z" fill="white"/>
<path d="M75.1758 44.1812C75.2351 43.4159 75.29 42.3748 75.3404 41.0578C75.3938 39.7407 75.4235 38.664 75.4294 37.8275C75.9159 37.7237 76.3044 37.654 76.5951 37.6184C76.8888 37.5798 77.1824 37.5605 77.4761 37.5605C77.9388 37.5605 78.3408 37.6347 78.6819 37.783C79.023 37.9284 79.2885 38.1864 79.4783 38.5572C79.6682 38.925 79.7631 39.3418 79.7631 39.8075C79.7631 40.1308 79.7186 40.4437 79.6296 40.7463C79.5406 41.0459 79.4042 41.3143 79.2203 41.5516C79.0393 41.7889 78.8198 41.9684 78.5618 42.09C78.3037 42.2087 78.016 42.268 77.6986 42.268C77.5087 42.268 77.3263 42.2443 77.1513 42.1968C76.9763 42.1523 76.8235 42.093 76.693 42.0188C76.5655 41.9447 76.4572 41.8616 76.3682 41.7697C76.2822 41.6777 76.1769 41.5398 76.0523 41.3559L75.9989 43.1178C75.987 43.4055 75.9811 43.6132 75.9811 43.7407V44.1812C75.8298 44.1753 75.6978 44.1723 75.5851 44.1723C75.4813 44.1723 75.3449 44.1753 75.1758 44.1812ZM76.1947 38.357L76.1635 38.6951L76.1413 39.1579C76.1294 39.4011 76.1205 39.5998 76.1146 39.7541C76.1087 39.9054 76.1057 40.0122 76.1057 40.0744C76.1057 40.2939 76.1279 40.5016 76.1724 40.6974C76.2199 40.8931 76.3119 41.0726 76.4483 41.2357C76.5877 41.3959 76.7509 41.5175 76.9377 41.6006C77.1246 41.6836 77.3174 41.7252 77.5161 41.7252C77.795 41.7252 78.0471 41.648 78.2725 41.4938C78.5009 41.3395 78.6789 41.1097 78.8065 40.8041C78.934 40.4986 78.9978 40.1649 78.9978 39.803C78.9978 39.4382 78.931 39.1238 78.7976 38.8598C78.6641 38.5958 78.4846 38.4059 78.2592 38.2902C78.0338 38.1716 77.7787 38.1123 77.4939 38.1123C77.0875 38.1123 76.6545 38.1938 76.1947 38.357Z" fill="white"/>
<path d="M70.9492 42.1706C71.0085 41.257 71.0664 40.1743 71.1227 38.9225C71.1613 38.0119 71.1895 37.0701 71.2073 36.0972L71.6211 36.1016C71.7071 36.1016 71.8391 36.1001 72.0171 36.0972L71.8791 38.7089L71.7812 41.3519L71.7635 42.1706C71.5884 42.1646 71.4579 42.1617 71.3719 42.1617C71.3363 42.1617 71.1954 42.1646 70.9492 42.1706Z" fill="white"/>
<path d="M66.3853 38.3792C66.412 38.2487 66.4402 38.0559 66.4698 37.8008C66.8258 37.7089 67.1343 37.6466 67.3953 37.6139C67.6593 37.5783 67.9159 37.5605 68.165 37.5605C68.432 37.5605 68.6812 37.5858 68.9125 37.6362C69.1469 37.6836 69.3411 37.7623 69.4954 37.872C69.6496 37.9818 69.752 38.1078 69.8024 38.2502C69.8528 38.3926 69.878 38.5453 69.878 38.7085C69.878 38.9132 69.8617 39.2572 69.8291 39.7407C69.7994 40.2213 69.7757 40.6662 69.7579 41.0755C69.7431 41.4849 69.7357 41.8497 69.7357 42.1701C69.5755 42.1642 69.445 42.1612 69.3441 42.1612C69.2492 42.1612 69.1142 42.1642 68.9392 42.1701L69.0327 40.9554L69.0994 39.5183C68.9956 39.5984 68.917 39.6547 68.8636 39.6873C68.8132 39.72 68.7553 39.7511 68.6901 39.7808C68.6248 39.8075 68.5521 39.8342 68.472 39.8609C68.3949 39.8846 68.2421 39.9276 68.0137 39.9899C67.7883 40.0522 67.6281 40.0997 67.5332 40.1323C67.3285 40.1975 67.1669 40.2628 67.0482 40.3281C66.9296 40.3933 66.8302 40.4645 66.7501 40.5416C66.67 40.6187 66.6137 40.6959 66.5811 40.773C66.5425 40.8679 66.5232 40.9673 66.5232 41.0711C66.5232 41.2313 66.5707 41.3707 66.6656 41.4893C66.7605 41.608 66.8792 41.691 67.0215 41.7385C67.1669 41.783 67.3404 41.8052 67.5421 41.8052C67.6667 41.8052 67.7972 41.7963 67.9337 41.7785C68.0701 41.7608 68.2525 41.7148 68.4809 41.6406C68.4394 41.7563 68.3919 41.9343 68.3386 42.1745C68.122 42.2161 67.9455 42.2413 67.8091 42.2502C67.6726 42.262 67.5436 42.268 67.422 42.268C67.0156 42.268 66.6982 42.2205 66.4698 42.1256C66.2414 42.0307 66.0709 41.8868 65.9581 41.694C65.8454 41.4982 65.7891 41.2862 65.7891 41.0578C65.7891 40.9243 65.8083 40.8012 65.8469 40.6885C65.8884 40.5757 65.9433 40.4734 66.0115 40.3814C66.0798 40.2895 66.1762 40.1975 66.3007 40.1056C66.4283 40.0136 66.5603 39.938 66.6967 39.8787C66.8361 39.8193 66.9978 39.7615 67.1817 39.7051C67.3656 39.6458 67.6608 39.5672 68.0671 39.4693C68.1977 39.4397 68.3089 39.41 68.4008 39.3803C68.4928 39.3477 68.5744 39.3166 68.6456 39.2869C68.7167 39.2572 68.779 39.2231 68.8324 39.1846C68.8858 39.143 68.9348 39.0941 68.9793 39.0377C69.0238 38.9784 69.0564 38.9191 69.0771 38.8598C69.0979 38.8004 69.1083 38.7411 69.1083 38.6818C69.1083 38.5364 69.0608 38.4119 68.9659 38.308C68.871 38.2042 68.7464 38.1315 68.5922 38.09C68.4409 38.0485 68.2614 38.0277 68.0538 38.0277C67.861 38.0277 67.6622 38.044 67.4576 38.0767C67.2559 38.1063 67.0809 38.1434 66.9326 38.1879C66.7872 38.2294 66.6048 38.2932 66.3853 38.3792Z" fill="white"/>
<path d="M65.4498 41.5829C65.4171 41.7282 65.3815 41.921 65.343 42.1613C65.1413 42.2088 64.9811 42.2384 64.8624 42.2503C64.7438 42.2622 64.6311 42.2681 64.5243 42.2681C64.2603 42.2681 64.0467 42.2355 63.8836 42.1702C63.7234 42.102 63.6003 41.9952 63.5143 41.8499C63.4283 41.7015 63.3853 41.5013 63.3853 41.2492C63.3853 41.2166 63.3867 41.1587 63.3897 41.0757C63.3927 40.9926 63.4075 40.7034 63.4342 40.208L63.541 38.2147H62.9492C62.9611 38.0901 62.9715 37.9122 62.9804 37.6808H63.5855C63.6003 37.5147 63.6151 37.2314 63.63 36.831C63.9088 36.7776 64.1446 36.7271 64.3374 36.6797C64.3167 37.1187 64.3048 37.4524 64.3018 37.6808H65.5388C65.5239 37.8677 65.515 38.0456 65.5121 38.2147H64.2796L64.1594 40.7197L64.155 40.911C64.155 41.1276 64.1787 41.2907 64.2262 41.4005C64.2766 41.5073 64.3508 41.5844 64.4487 41.6318C64.5465 41.6793 64.6489 41.703 64.7557 41.703C64.8298 41.703 64.9099 41.6971 64.9959 41.6852C65.082 41.6734 65.2332 41.6393 65.4498 41.5829Z" fill="white"/>
<path d="M61.3408 36.6933C61.3497 36.4145 61.3542 36.2039 61.3542 36.0615C61.5173 36.0675 61.6612 36.0704 61.7858 36.0704C61.943 36.0704 62.0854 36.0675 62.2129 36.0615C62.207 36.1535 62.1981 36.3641 62.1862 36.6933C62.026 36.6904 61.8881 36.6889 61.7724 36.6889C61.6568 36.6889 61.5129 36.6904 61.3408 36.6933ZM61.1406 42.1705L61.2163 41.0493L61.3008 39.136L61.3364 37.6633L61.7457 37.6677L62.1462 37.6633C62.1136 38.126 62.0839 38.611 62.0572 39.1182C62.0305 39.6225 62.0083 40.1742 61.9905 40.7734C61.9756 41.3726 61.9682 41.8383 61.9682 42.1705C61.7813 42.1646 61.6479 42.1616 61.5678 42.1616C61.4936 42.1616 61.3512 42.1646 61.1406 42.1705Z" fill="white"/>
<path d="M55.8982 43.4738C56.2897 43.5924 56.6175 43.6725 56.8815 43.714C57.1455 43.7556 57.3857 43.7763 57.6023 43.7763C57.8485 43.7763 58.0769 43.7422 58.2875 43.674C58.4625 43.6176 58.6123 43.5375 58.7369 43.4337C58.8318 43.3536 58.9104 43.2498 58.9727 43.1223C59.0498 42.9532 59.1047 42.7381 59.1373 42.4771C59.164 42.2665 59.1848 41.8468 59.1996 41.2179C59.1284 41.3514 59.0632 41.4597 59.0038 41.5427C58.9475 41.6258 58.8703 41.7118 58.7725 41.8008C58.6746 41.8868 58.5604 41.9639 58.4299 42.0322C58.2993 42.1004 58.1481 42.1538 57.976 42.1923C57.804 42.2339 57.626 42.2546 57.4421 42.2546C57.1722 42.2546 56.9186 42.2176 56.6813 42.1434C56.4469 42.0692 56.2363 41.9461 56.0494 41.7741C55.8655 41.6021 55.7246 41.3826 55.6268 41.1156C55.5318 40.8486 55.4844 40.5698 55.4844 40.2791C55.4844 39.8787 55.5556 39.4975 55.6979 39.1356C55.8433 38.7737 56.0539 38.4712 56.3298 38.228C56.6086 37.9847 56.9215 37.8127 57.2686 37.7118C57.6186 37.611 58.0012 37.5605 58.4165 37.5605C58.8733 37.5605 59.4413 37.6214 60.1206 37.743L60.0717 38.2902L59.9382 40.7863C59.9382 40.8368 59.9308 41.1393 59.9159 41.694L59.8893 42.615C59.8744 42.8108 59.8477 42.9828 59.8092 43.1312C59.7736 43.2528 59.7261 43.3685 59.6668 43.4782C59.6134 43.5791 59.5467 43.671 59.4666 43.7541C59.3894 43.8401 59.299 43.9172 59.1951 43.9854C59.0913 44.0537 58.9801 44.1085 58.8614 44.1501C58.6953 44.2094 58.5233 44.2524 58.3453 44.2791C58.1436 44.3117 57.9419 44.328 57.7402 44.328C57.4495 44.328 57.1633 44.3132 56.8815 44.2835C56.6026 44.2539 56.2897 44.1975 55.9427 44.1145L55.9293 43.8698C55.9263 43.8104 55.916 43.6784 55.8982 43.4738ZM59.3197 38.2235C58.9875 38.1582 58.6775 38.1256 58.3898 38.1256C58.0991 38.1256 57.8292 38.1597 57.58 38.228C57.3338 38.2962 57.1069 38.4208 56.8993 38.6017C56.6946 38.7826 56.5344 39.017 56.4187 39.3047C56.3031 39.5924 56.2452 39.8905 56.2452 40.199C56.2452 40.4867 56.2971 40.7493 56.4009 40.9866C56.5077 41.2239 56.6709 41.4033 56.8904 41.5249C57.1099 41.6436 57.359 41.7029 57.6379 41.7029C57.8781 41.7029 58.0917 41.6614 58.2786 41.5783C58.4684 41.4923 58.636 41.3618 58.7814 41.1868C58.9326 41.0058 59.0454 40.7982 59.1195 40.5639C59.1759 40.3978 59.2189 40.1516 59.2485 39.8253C59.2723 39.5642 59.296 39.0303 59.3197 38.2235Z" fill="white"/>
<path d="M53.7862 36.6933C53.7951 36.4145 53.7995 36.2039 53.7995 36.0615C53.9627 36.0675 54.1065 36.0704 54.2311 36.0704C54.3883 36.0704 54.5307 36.0675 54.6582 36.0615C54.6523 36.1535 54.6434 36.3641 54.6315 36.6933C54.4714 36.6904 54.3334 36.6889 54.2177 36.6889C54.1021 36.6889 53.9582 36.6904 53.7862 36.6933ZM53.5859 42.1705L53.6616 41.0493L53.7461 39.136L53.7817 37.6633L54.1911 37.6677L54.5915 37.6633C54.5589 38.126 54.5292 38.611 54.5025 39.1182C54.4758 39.6225 54.4536 40.1742 54.4358 40.7734C54.4209 41.3726 54.4135 41.8383 54.4135 42.1705C54.2266 42.1646 54.0932 42.1616 54.0131 42.1616C53.9389 42.1616 53.7965 42.1646 53.5859 42.1705Z" fill="white"/>
<path d="M52.3621 42.1706C52.1871 42.1646 52.0655 42.1617 51.9973 42.1617C51.9231 42.1617 51.7941 42.1646 51.6102 42.1706L51.6636 41.2095C51.5686 41.3756 51.4871 41.5046 51.4188 41.5966C51.3506 41.6856 51.2691 41.7701 51.1741 41.8502C51.0822 41.9303 50.9739 42.003 50.8493 42.0682C50.7277 42.1305 50.5913 42.1795 50.44 42.2151C50.2887 42.2506 50.1285 42.2684 49.9595 42.2684C49.6717 42.2684 49.4018 42.2165 49.1497 42.1127C48.9005 42.0089 48.6884 41.8606 48.5134 41.6678C48.3384 41.475 48.2123 41.251 48.1352 40.9959C48.0581 40.7379 48.0195 40.4694 48.0195 40.1906C48.0195 39.8168 48.0922 39.449 48.2376 39.0871C48.3829 38.7253 48.5876 38.4272 48.8516 38.1928C49.1185 37.9555 49.4196 37.7909 49.7548 37.6989C50.09 37.607 50.4459 37.561 50.8226 37.561C51.0837 37.561 51.3936 37.5907 51.7526 37.65C51.7674 37.3267 51.7748 37.0582 51.7748 36.8447C51.7748 36.5362 51.7733 36.287 51.7703 36.0972L52.1752 36.1016C52.2761 36.1016 52.4111 36.1001 52.5801 36.0972L52.4511 38.6066L52.3621 41.4809V42.1706ZM51.7214 38.2106C51.5434 38.1572 51.3907 38.1231 51.2631 38.1083C51.1385 38.0935 51.0169 38.086 50.8983 38.086C50.6135 38.086 50.3406 38.1276 50.0796 38.2106C49.8215 38.2907 49.5931 38.4242 49.3944 38.6111C49.1986 38.7979 49.0473 39.0352 48.9406 39.323C48.8338 39.6107 48.7804 39.8925 48.7804 40.1683C48.7804 40.4442 48.8308 40.7023 48.9317 40.9425C49.0325 41.1798 49.1882 41.3667 49.3988 41.5032C49.6124 41.6366 49.8601 41.7034 50.1419 41.7034C50.311 41.7034 50.4652 41.6811 50.6046 41.6366C50.744 41.5892 50.8701 41.521 50.9828 41.432C51.0985 41.343 51.2068 41.2228 51.3076 41.0716C51.4085 40.9203 51.4886 40.7453 51.5479 40.5465C51.5983 40.3715 51.6354 40.1357 51.6591 39.8391C51.671 39.6937 51.6843 39.4134 51.6992 38.9982L51.7214 38.2106Z" fill="white"/>
<path d="M43.5969 37.8657C43.5818 37.9432 43.5667 38.0206 43.4526 38.0422C43.4353 37.9195 43.4849 37.8679 43.6012 37.87L43.5969 37.8657Z" fill="white"/>
<path d="M43.602 37.8701C43.6042 37.844 43.6064 37.8157 43.6086 37.7896C43.6216 37.7939 43.6325 37.8004 43.6456 37.8048C43.6304 37.8266 43.6129 37.8462 43.5977 37.8679L43.602 37.8701Z" fill="white"/>
</svg>
